<?xml version="1.0" standalone="no"?>
<!DOCTYPE svg PUBLIC "-//W3C//DTD SVG 20010904//EN"
 "http://www.w3.org/TR/2001/REC-SVG-20010904/DTD/svg10.dtd">
<svg version="1.0" xmlns="http://www.w3.org/2000/svg"
 width="2560.000000pt" height="564.000000pt" viewBox="0 0 2560.000000 564.000000"
 preserveAspectRatio="xMidYMid meet">

<g transform="translate(0.000000,564.000000) scale(0.100000,-0.100000)"
fill="#000000" stroke="none">
<path d="M2625 5629 c-377 -27 -710 -117 -1050 -284 -410 -202 -740 -477
-1017 -848 -450 -603 -640 -1380 -518 -2126 119 -728 507 -1366 1100 -1812
668 -501 1551 -676 2371 -469 772 195 1439 724 1804 1433 150 291 239 566 292
907 25 164 25 616 0 780 -53 341 -142 616 -292 907 -406 787 -1171 1342 -2046
1483 -223 35 -427 45 -644 29z m189 -1231 c-4 -13 -179 -502 -390 -1088 l-382
-1065 231 -3 c127 -1 234 1 238 5 3 5 98 263 210 576 l204 567 460 0 461 0
302 -842 c167 -464 305 -853 309 -866 l5 -22 -328 0 -329 0 -210 585 c-115
321 -210 583 -211 582 -1 -1 -70 -193 -154 -427 -83 -234 -164 -447 -178 -475
-37 -69 -135 -164 -208 -203 -119 -62 -113 -62 -933 -62 -704 0 -743 1 -736
18 4 9 202 561 441 1227 240 665 447 1231 461 1257 34 63 130 158 196 193 97
53 153 64 360 64 l188 1 -7 -22z"/>
<path d="M16100 4219 c-547 -51 -968 -380 -1125 -879 -50 -161 -68 -294 -68
-520 0 -164 5 -228 21 -320 52 -287 155 -499 337 -689 251 -263 580 -394 990
-394 310 1 575 78 802 235 201 138 375 372 457 612 112 326 112 786 0 1112
-151 442 -521 747 -1002 828 -116 20 -296 26 -412 15z m324 -589 c107 -27 190
-74 267 -151 160 -159 239 -452 210 -779 -15 -166 -39 -262 -97 -379 -107
-216 -298 -331 -554 -331 -256 0 -447 115 -554 331 -57 117 -82 213 -96 374
-29 334 49 624 209 785 77 77 178 132 281 154 98 21 242 20 334 -4z"/>
<path d="M7520 2820 l0 -1370 930 0 930 0 0 265 0 265 -590 0 -590 0 0 1105 0
1105 -340 0 -340 0 0 -1370z"/>
<path d="M10606 4182 c-3 -5 -214 -609 -470 -1343 -255 -734 -469 -1346 -475
-1362 l-11 -27 367 2 366 3 92 285 92 285 492 0 493 0 92 -285 93 -285 365 -3
365 -2 -354 1017 c-195 560 -410 1176 -476 1368 l-122 350 -452 3 c-248 1
-454 -2 -457 -6z m625 -1165 c86 -265 154 -485 152 -489 -2 -5 -148 -8 -323
-8 -175 0 -321 3 -323 8 -3 4 65 224 151 490 117 363 160 482 171 482 12 0 55
-120 172 -483z"/>
<path d="M12330 3925 l0 -265 430 0 430 0 0 -1105 0 -1105 335 0 335 0 0 1105
0 1105 430 0 430 0 0 265 0 265 -1195 0 -1195 0 0 -265z"/>
<path d="M18010 2820 l0 -1370 335 0 335 0 0 369 0 369 141 172 141 172 117
-179 c64 -98 222 -340 352 -538 l235 -360 408 -3 407 -2 -184 272 c-251 372
-820 1219 -829 1234 -7 11 121 170 910 1132 l84 102 -399 0 -399 0 -468 -580
c-383 -474 -473 -580 -492 -580 l-24 0 0 580 0 580 -335 0 -335 0 0 -1370z"/>
<path d="M20740 2820 l0 -1370 985 0 985 0 0 265 0 265 -645 0 -645 0 0 285 0
285 595 0 595 0 0 270 0 270 -595 0 -595 0 0 285 0 285 645 0 645 0 0 265 0
265 -985 0 -985 0 0 -1370z"/>
<path d="M23150 2820 l0 -1370 335 0 335 0 0 788 c0 434 3 792 7 795 3 4 12 2
18 -3 7 -6 264 -364 571 -795 l558 -785 288 0 288 0 0 1370 0 1370 -340 0
-340 0 0 -791 c0 -706 -2 -790 -15 -787 -9 2 -265 356 -569 788 l-554 785
-291 3 -291 2 0 -1370z"/>
</g>
</svg>
